<svg width="43" height="36" viewBox="0 0 43 36" fill="none" xmlns="http://www.w3.org/2000/svg">
<path d="M0.737091 17.8744C0.748258 13.2408 2.93342 8.79973 6.81425 5.5233C10.6951 2.24686 15.9554 0.402006 21.4437 0.392578C26.9016 0.48385 32.1058 2.35498 35.9659 5.61388C39.8259 8.87278 42.0422 13.2665 42.1503 17.8744C42.1392 22.508 39.954 26.9491 36.0732 30.2255C32.1923 33.5019 26.932 35.3468 21.4437 35.3562C15.9858 35.2649 10.7816 33.3938 6.92154 30.1349C3.06149 26.876 0.845199 22.4823 0.737091 17.8744ZM21.4437 6.81447C18.877 6.77923 16.3563 7.39186 14.2047 8.57384C12.0531 9.75583 10.3685 11.4533 9.3669 13.4488C8.3653 15.4442 8.09228 17.6467 8.58284 19.774C9.0734 21.9013 10.3052 23.8565 12.1204 25.389C13.9355 26.9214 16.2513 27.9614 18.771 28.3756C21.2908 28.7897 23.8996 28.5592 26.2631 27.7136C28.6267 26.868 30.6373 25.4458 32.0373 23.6292C33.4373 21.8127 34.163 19.6846 34.1212 17.5176C34.1212 14.679 32.7856 11.9566 30.4081 9.94935C28.0306 7.94212 24.806 6.81447 21.4437 6.81447Z" fill="white"/>
</svg>
