<svg width="107" height="96" viewBox="0 0 107 96" fill="none" xmlns="http://www.w3.org/2000/svg">
<path d="M91.0193 4.42966C93.8858 4.42966 96.6348 5.45626 98.6617 7.28362C100.689 9.11097 101.827 11.5894 101.827 14.1737V81.8249C101.827 84.4091 100.689 86.8876 98.6617 88.7149C96.6348 90.5423 93.8858 91.5689 91.0193 91.5689H15.9809C13.1144 91.5689 10.3654 90.5423 8.33849 88.7149C6.31159 86.8876 5.17289 84.4091 5.17289 81.8249V14.1737C5.17289 11.5894 6.31159 9.11097 8.33849 7.28362C10.3654 5.45626 13.1144 4.42966 15.9809 4.42966H91.0193ZM91.0193 0.253662H15.9809C11.886 0.253662 7.95873 1.72023 5.06316 4.33074C2.1676 6.94124 0.540894 10.4818 0.540894 14.1737V81.8249C0.540894 85.5167 2.1676 89.0573 5.06316 91.6678C7.95873 94.2783 11.886 95.7449 15.9809 95.7449H91.0193C95.1142 95.7449 99.0415 94.2783 101.937 91.6678C104.833 89.0573 106.459 85.5167 106.459 81.8249V14.1737C106.459 10.4818 104.833 6.94124 101.937 4.33074C99.0415 1.72023 95.1142 0.253662 91.0193 0.253662V0.253662Z" fill="#454B57"/>
</svg>
