<svg width="105" height="89" viewBox="0 0 105 89" fill="none" xmlns="http://www.w3.org/2000/svg">
<path d="M65.625 49.6449C63.4927 48.1983 60.7915 47.477 58.0562 47.6237H39.375V63.6834H58.3625C61.0133 63.7488 63.5995 62.9897 65.625 61.5519C66.5851 60.7752 67.3387 59.8366 67.8364 58.7979C68.334 57.7592 68.5645 56.6438 68.5125 55.5249C68.5591 54.4284 68.3255 53.3363 67.8274 52.322C67.3293 51.3078 66.5783 50.3949 65.625 49.6449V49.6449ZM63 39.2814C63.8821 38.6212 64.576 37.8028 65.0304 36.8867C65.4848 35.9706 65.688 34.9804 65.625 33.9894C65.7538 32.989 65.6121 31.977 65.2107 31.0289C64.8092 30.0808 64.1582 29.2211 63.3062 28.5137C61.4342 27.3958 59.1691 26.8392 56.875 26.9334H39.375V41.1189H56.875C59.1686 41.1566 61.4028 40.505 63.175 39.2814H63ZM87.5 0.399902H17.5C12.8587 0.399902 8.40752 1.94865 5.12563 4.70543C1.84374 7.46222 0 11.2012 0 15.0999V73.8999C0 77.7986 1.84374 81.5376 5.12563 84.2944C8.40752 87.0512 12.8587 88.5999 17.5 88.5999H87.5C92.1413 88.5999 96.5925 87.0512 99.8744 84.2944C103.156 81.5376 105 77.7986 105 73.8999V15.0999C105 11.2012 103.156 7.46222 99.8744 4.70543C96.5925 1.94865 92.1413 0.399902 87.5 0.399902V0.399902ZM77.9187 62.3237C77.0734 64.1116 75.6857 65.6827 73.8937 66.8807C71.8112 68.2731 69.4154 69.2981 66.85 69.8942C63.5422 70.7128 60.1037 71.097 56.6562 71.0334H28.525V19.5834H58.275C62.9458 19.3879 67.5619 20.4994 71.4 22.7439C73.0977 23.8812 74.4393 25.3492 75.3084 27.0207C76.1776 28.6922 76.548 30.5167 76.3875 32.3357C76.5495 34.6742 75.8465 36.9976 74.375 38.9874C72.748 40.9093 70.5017 42.401 67.9 43.2872C69.6383 43.5132 71.3062 44.0256 72.8079 44.7951C74.3096 45.5645 75.6153 46.5758 76.65 47.7707C78.6805 50.3613 79.7047 53.4172 79.5812 56.5172C79.516 58.529 78.9497 60.507 77.9187 62.3237Z" fill="black"/>
</svg>
