<svg width="70" height="57" viewBox="0 0 70 57" fill="none" xmlns="http://www.w3.org/2000/svg">
<path d="M67.787 13.676C66.584 10.721 64.5005 8.04781 61.7183 5.88985C58.9361 3.73188 55.5398 2.15471 51.8258 1.296C40.7833 -0.40954 29.4384 -0.40954 18.3959 1.296C14.6183 2.10175 11.1474 3.64744 8.29268 5.79515C5.438 7.94287 3.28841 10.6258 2.03568 13.6046C-0.00835307 21.0667 -0.00835307 28.7975 2.03568 36.2596C3.1953 39.097 5.16183 41.6775 7.77879 43.7957C10.3958 45.9139 13.5909 47.5115 17.1101 48.4612V54.4907C17.1115 54.974 17.2922 55.4461 17.6291 55.8462C17.966 56.2464 18.4438 56.5564 19.0012 56.7366C19.5586 56.9168 20.1702 56.9588 20.7575 56.8574C21.3448 56.7561 21.8811 56.5158 22.2975 56.1675L29.8791 49.8526H34.8005C40.41 49.849 46.0065 49.419 51.5154 48.5683C55.2294 47.7096 58.6257 46.1324 61.4079 43.9744C64.1902 41.8165 66.2737 39.1433 67.4766 36.1883C69.597 28.7901 69.7029 21.1102 67.787 13.676V13.676ZM61.8015 35.0823C60.8744 37.1286 59.3776 38.9771 57.4255 40.486C55.4735 41.9949 53.1182 43.1243 50.54 43.7875C44.6966 44.6799 38.7507 45.0627 32.8053 44.9292C32.7562 44.9125 32.7035 44.9039 32.6502 44.9039C32.5969 44.9039 32.5441 44.9125 32.495 44.9292L26.9086 49.7813L21.0118 54.6334C20.9128 54.7089 20.7889 54.7599 20.6548 54.7802C20.5207 54.8005 20.3822 54.7893 20.2559 54.7479C20.1296 54.7065 20.0208 54.6366 19.9425 54.5467C19.8642 54.4568 19.8199 54.3506 19.8147 54.2409V44.287C19.8069 44.2097 19.7681 44.1366 19.7041 44.0787C19.6401 44.0207 19.5544 43.9812 19.46 43.9659C16.8818 43.3026 14.5265 42.1733 12.5745 40.6644C10.6224 39.1555 9.12556 37.307 8.19848 35.2607C6.35744 28.5148 6.35744 21.5278 8.19848 14.782C9.12556 12.7356 10.6224 10.8872 12.5745 9.37827C14.5265 7.86936 16.8818 6.74001 19.46 6.07674C29.7124 4.49961 40.2433 4.49961 50.4957 6.07674C53.0739 6.74001 55.4292 7.86936 57.3812 9.37827C59.3332 10.8872 60.8301 12.7356 61.7572 14.782C63.6142 21.5251 63.6294 28.5124 61.8015 35.2607V35.0823Z" fill="white"/>
</svg>
