<svg width="132" height="113" viewBox="0 0 132 113" fill="none" xmlns="http://www.w3.org/2000/svg">
<path fill-rule="evenodd" clip-rule="evenodd" d="M131.51 73.5843V39.5525C131.51 8.46797 122.853 1.0724 86.1784 1.0724C-3.50784 0.584512 0.0263291 -2.5078 0.628009 73.527C0.628009 104.612 9.28475 112.007 45.9596 112.007H76.401C115.367 112.577 132.49 110.306 131.51 73.5843ZM106.289 80.2299H96.745C93.1322 80.2299 92.042 77.7448 85.5656 72.2564C79.9076 67.6337 77.5216 67.0557 76.0906 67.0557C74.113 67.0557 73.5679 67.5179 73.5679 69.8286V77.1083C73.5679 79.0728 72.8186 80.2287 66.7507 80.2287C56.6615 80.2287 45.5511 75.0281 37.6424 65.4376C25.7813 51.3976 22.5769 40.7658 22.5769 38.6282C22.5769 37.4149 23.122 36.3163 25.8489 36.3163H35.393C37.8466 36.3163 38.7326 37.2406 39.6875 39.3782C43.5998 50.2522 57.001 68.3462 57.2066 57.925V46.0226C56.7981 40.5915 53.3896 40.1293 53.3896 38.1649C53.3896 37.2979 54.3445 36.3163 55.8432 36.3163H70.8397C72.8848 36.3163 73.5665 37.1833 73.5665 39.2624V55.3253C73.826 59.1769 76.6522 57.6618 79.4978 55.1521C86.3826 48.6809 91.2223 38.6271 91.2223 38.6271C91.8364 37.4138 92.9266 36.3163 95.3802 36.3163H104.924C107.788 36.3163 108.4 37.5296 107.788 39.2635C106.629 44.0009 94.9717 57.8677 94.9717 57.9262C93.9491 59.2553 93.5407 59.9491 94.9717 61.5087C97.7193 64.4115 117.74 79.7408 106.289 80.2299Z" fill="#345E90"/>
</svg>
