<svg width="117" height="84" viewBox="0 0 117 84" fill="none" xmlns="http://www.w3.org/2000/svg">
<path d="M58.358 83.1429C58.0514 83.1429 57.7448 83.112 57.4495 83.0537L12.2935 73.8652C11.2259 73.6492 10.4706 73.0697 10.3741 72.3909L0.306 2.71889C0.237857 2.24232 0.504749 1.76918 1.03854 1.41261C1.57232 1.05603 2.33893 0.857178 3.13393 0.857178H113.866C114.661 0.857178 115.422 1.05946 115.961 1.41261C116.501 1.76575 116.768 2.24232 116.694 2.71889L106.632 72.3875C106.535 73.0663 105.78 73.6492 104.707 73.8652L59.2609 83.0537C58.9656 83.112 58.659 83.1429 58.358 83.1429ZM15.8653 70.9749L58.358 79.6217L101.135 70.9715L110.771 4.28575H6.23443L15.8653 70.9749ZM103.804 72.24H103.86H103.804ZM58.6647 66.4217C58.4091 66.4217 57.8299 66.4012 57.5801 66.3566L29.1191 61.5497C27.972 61.3543 27.1486 60.7509 27.0521 60.0343L25.3258 46.6903C25.2633 46.2137 25.5359 45.744 26.0697 45.3943C26.6091 45.0412 27.3644 44.8423 28.1537 44.8423H41.9072C43.378 44.8423 44.6045 45.5177 44.7351 46.4023L45.5642 51.9257L58.341 54.0412L71.1859 51.9257L72.4352 44.0297H27.4325C25.9618 44.0297 24.7295 43.3509 24.6046 42.4629L20.9135 16.8343C20.8454 16.3577 21.1123 15.8846 21.6461 15.528C22.1799 15.1715 22.9465 14.9726 23.7415 14.9726H93.2642C94.0649 14.9726 94.8201 15.1749 95.3596 15.5315C95.8991 15.888 96.166 16.3612 96.0922 16.8412L94.8258 25.2377C94.6952 26.1189 93.4686 26.7977 91.9979 26.7977H42.0833L42.7987 32.0675H90.8168C91.6174 32.0675 92.3727 32.2697 92.9121 32.6263C93.4516 32.9829 93.7185 33.4595 93.6447 33.936L89.7208 60.0583C89.6129 60.768 88.7895 61.3646 87.6538 61.5566L59.9935 66.2126C59.6016 66.3463 59.1474 66.4217 58.6647 66.4217ZM32.5546 58.5737L58.3467 62.928L84.2467 58.5703L87.7106 35.496H40.1866C38.7102 35.496 37.4779 34.8103 37.353 33.9223L36.1719 25.224C36.1094 24.7475 36.3763 24.2743 36.9158 23.9212C37.4552 23.568 38.2105 23.3692 39.0055 23.3692H89.4085L90.158 18.4012H26.8363L30.0333 40.6012H75.5528C76.3534 40.6012 77.1144 40.8069 77.6538 41.1635C78.1933 41.52 78.4545 42 78.375 42.48L76.643 53.4309C76.5295 54.1406 75.7004 54.7337 74.5647 54.9223L59.0792 57.4766C58.5852 57.5555 58.0741 57.5555 57.5801 57.4766L42.1514 54.9223C41.01 54.7337 40.1809 54.1372 40.073 53.424L39.3008 48.2777H31.2201L32.5546 58.5737Z" fill="black"/>
</svg>
